<?xml version="1.0" encoding="utf-8"?>
<!-- Generator: Adobe Illustrator 20.0.0, SVG Export Plug-In . SVG Version: 6.00 Build 0)  -->
<svg version="1.1" id="Layer_1" xmlns="http://www.w3.org/2000/svg" xmlns:xlink="http://www.w3.org/1999/xlink" x="0px" y="0px"
	 viewBox="0 0 133.2 27.9" style="enable-background:new 0 0 133.2 27.9;" xml:space="preserve">
<style type="text/css">
	.st0{fill:#FFFFFF;}
</style>
<title>vinaAS*</title>
<desc>Created with Sketch.</desc>
<g>
	<title>VinaAS-Logo-2017</title>
	<path class="st0" d="M1.9,12.2H0v-3l2.1-0.2l0.5-3.6h3.3v3.6h3.2v3.1H5.9v5.4c0,1.5,0.7,2.2,1.7,2.2c0.4,0,0.9-0.1,1.3-0.3l0.6,2.9
		c-1,0.3-2,0.5-3,0.5c-3.4,0-4.7-2.1-4.7-5.2L1.9,12.2z"/>
	<path class="st0" d="M16.4,8.8c3.8,0,5.8,2.8,5.8,6.5c0,0.6,0,1.1-0.2,1.7h-8.1c0.4,2,1.7,2.9,3.5,2.9c1,0,1.9-0.3,2.9-0.9l1.3,2.4
		c-1.4,1-3.1,1.5-4.8,1.5c-3.9,0-6.8-2.6-6.8-7.1C10,11.5,13.1,8.8,16.4,8.8 M18.7,14.5c0-1.6-0.7-2.6-2.3-2.6
		c-1.3,0-2.3,0.8-2.6,2.6H18.7z"/>
	<path class="st0" d="M24.2,9.1h3.3l0.3,1.7h0.1c1.1-1.1,2.5-2,4.3-2c2.9,0,4.2,2.1,4.2,5.5v8.4h-4v-7.9c0-2-0.5-2.6-1.7-2.6
		c-1,0-1.6,0.5-2.5,1.3v9.1h-4V9.1z"/>
	<path class="st0" d="M39.7,12.2h-1.9v-3l2.1-0.2l0.5-3.6h3.3v3.6h3.2v3.1h-3.2v5.4c0,1.5,0.7,2.2,1.7,2.2c0.4,0,0.9-0.1,1.3-0.3
		l0.6,2.9c-1,0.3-2,0.5-3,0.5c-3.4,0-4.7-2.1-4.7-5.2L39.7,12.2z"/>
	<path class="st0" d="M47.8,9.1h4l1.3,6.3c0.2,1.3,0.4,2.6,0.6,4h0.1c0.2-1.4,0.5-2.7,0.8-4l1.5-6.3h3.5l1.5,6.3
		c0.3,1.3,0.6,2.6,0.8,4H62c0.2-1.4,0.4-2.7,0.6-4l1.3-6.3h3.7l-3.2,13.5h-4.7l-1.2-5.4c-0.3-1.3-0.5-2.5-0.7-3.9h-0.1
		c-0.2,1.4-0.4,2.7-0.7,3.9l-1.2,5.4h-4.6L47.8,9.1z"/>
	<path class="st0" d="M74.7,8.8c3.8,0,5.8,2.8,5.8,6.5c0,0.6,0,1.1-0.2,1.7h-8.1c0.4,2,1.7,2.9,3.5,2.9c1,0,1.9-0.3,2.9-0.9l1.3,2.4
		c-1.4,1-3.1,1.5-4.8,1.5c-3.9,0-6.8-2.6-6.8-7.1C68.4,11.5,71.5,8.8,74.7,8.8 M77.1,14.5c0-1.6-0.7-2.6-2.3-2.6
		c-1.3,0-2.3,0.8-2.6,2.6H77.1z"/>
	<path class="st0" d="M82.6,9.1h3.3l0.3,1.7h0.1c1.1-1.1,2.5-2,4.3-2c2.9,0,4.2,2.1,4.2,5.5v8.4h-4v-7.9c0-2-0.5-2.6-1.7-2.6
		c-1,0-1.6,0.5-2.5,1.3v9.1h-4V9.1z"/>
	<path class="st0" d="M98.1,12.2h-1.9v-3l2.1-0.2l0.5-3.6h3.3v3.6h3.2v3.1h-3.2v5.4c0,1.5,0.7,2.2,1.7,2.2c0.4,0,0.9-0.1,1.3-0.3
		l0.6,2.9c-1,0.3-2,0.5-3,0.5c-3.4,0-4.7-2.1-4.7-5.2L98.1,12.2z"/>
	<path class="st0" d="M108.5,24.8c1.3,0,2-0.7,2.4-1.8l0.2-0.7l-5.2-13.2h4l1.9,5.8c0.4,1.2,0.7,2.5,1.1,3.8h0.1
		c0.3-1.3,0.6-2.6,0.9-3.8l1.6-5.8h3.8l-4.7,13.7c-1.3,3.4-2.7,5.2-5.9,5.2c-0.6,0-1.3-0.1-1.9-0.3l0.7-3.1
		C107.9,24.7,108.2,24.7,108.5,24.8"/>
	<polygon class="st0" points="122.3,10.4 124.3,7 120.7,5.4 121.5,3.1 125.3,3.9 125.7,0 128.2,0 128.6,3.9 132.4,3.1 133.2,5.4 
		129.7,7 131.6,10.4 129.6,11.9 127,9 124.3,11.9 	"/>
</g>
</svg>
